Format : AVI
Format/Info : Audio Video Interleave
File size : 1.02 GiB
Duration : 1h 38mn
Overall bit rate : 1 488 Kbps
Writing library : VirtualDub build 32842/release

Video
ID : 0
Format : MPEG-4 Visual
Format profile : Advanced Simple@L5
Format settings, BVOP : 2
Format settings, QPel : No
Format settings, GMC : No warppoints
Format settings, Matrix : Default (H.263)
Muxing mode : Packed bitstream
Codec ID : XVID
Codec ID/Hint : XviD
Duration : 1h 38mn
Bit rate : 1 349 Kbps
Width : 720 pixels
Height : 304 pixels
Display aspect ratio : 2.35:1
Frame rate : 29.970 fps
Color space : YUV
Chroma subsampling : 4:2:0
Bit depth : 8 bits
Scan type : Progressive
Compression mode : Lossy
Bits/(Pixel*Frame) : 0.206
Stream size : 948 MiB (91%)
Writing library : XviD 64

Audio
ID : 1
Format : MPEG Audio
Format version : Version 1
Format profile : Layer 3
Mode : Joint stereo
Mode extension : MS Stereo
Codec ID : 55
Codec ID/Hint : MP3
Duration : 1h 38mn
Bit rate mode : Constant
Bit rate : 128 Kbps
Channel(s) : 2 channels
Sampling rate : 44.1 KHz
Compression mode : Lossy
Delay relative to video : 18ms
Stream size : 89.9 MiB (9%)
Alignment : Split accross interleaves
Interleave, duration : 33 ms (1.00 video frame)
Interleave, preload duration : 500 ms
Writing library : LAME3.98.4






 
http://www.imdb.com/title/tt1438176/





89524873606771859129.png



Storyline

A remake of the 1985 original, teenager Charley Brewster (Yelchin) guesses that his new neighbor Jerry Dandrige (Farrell) is a vampire responsible for a string of recent deaths. When no one he knows believes him, he enlists Peter Vincent (Tennant), a self proclaimed vampire killer and Las Vegas magician, to help him take down Jerry.



95521316153253938506.png




vlcsnap2011082320h21m40.png

vlcsnap2011082320h21m16.png

vlcsnap2011082320h20m10.png

vlcsnap2011082320h18m55.png






Source Used


IMAGiNE .................Thanks guys


Not loads done just a few filters to an already good vid .....Few dark scenes but still good copy



Enjoy





Greetz to IMAGiNE,Flawl3ss,DiLLoN,BDK,NOiR,TOXiC,THC,Ez,Rx,Boobyblue,TaRiQ786

